<svg xmlns="http://www.w3.org/2000/svg" width="602" height="415" viewBox="0 0 602 415">
<g>
<path d="M 520.87 220.20 C517.36,222.01 510.76,222.08 323.87,222.29 C217.52,222.40 118.09,222.27 102.92,222.00 L 75.35 221.50 L 71.30 218.82 C62.05,212.69 60.42,200.48 67.81,192.66 C68.43,192.00 68.78,191.42 69.21,190.91 C72.50,186.97 80.51,186.97 251.98,187.01 C265.94,187.01 280.99,187.02 297.20,187.02 L 518.50 187.03 L 522.42 189.27 C527.93,192.40 531.30,198.93 530.72,205.32 C530.18,211.24 526.01,217.54 520.87,220.20 ZM 519.68 346.93 C517.72,347.68 450.25,348.00 296.68,347.98 L 76.50 347.97 L 72.53 345.72 C65.59,341.79 62.00,334.16 63.45,326.44 C64.21,322.36 69.72,315.77 73.76,314.11 C75.77,313.28 135.39,313.05 298.50,313.24 L 520.50 313.50 L 523.87 315.90 C527.79,318.70 530.96,325.00 530.96,330.00 C530.96,336.89 525.82,344.61 519.68,346.93 ZM 522.50 93.20 L 518.50 95.93 L 75.50 95.94 L 71.50 92.96 C66.63,89.32 62.99,82.94 63.02,78.09 C63.05,72.99 66.20,66.71 70.13,63.90 L 73.50 61.50 L 520.85 61.50 L 523.68 63.56 C527.33,66.23 531.00,73.45 531.00,78.00 C531.00,83.15 527.16,90.02 522.50,93.20 Z" fill="rgb(0,0,0)"/>
<path d="M 0.00 0.00 L 602.00 0.00 L 602.00 415.00 L 0.00 415.00 ZM 65.22 95.06 C65.07,95.96 72.79,96.15 73.34,95.25 C73.53,94.96 73.03,94.25 72.15,93.44 L 75.50 95.94 L 518.50 95.93 L 520.57 94.52 C520.22,94.85 520.01,95.12 520.01,95.28 C520.00,96.50 526.89,95.73 527.38,94.46 C528.41,91.76 526.39,90.90 523.23,92.67 C526.81,89.88 529.78,85.00 530.71,80.64 C530.50,81.88 530.15,83.10 529.64,84.32 C528.39,87.31 528.43,87.57 530.14,87.57 C531.16,87.57 532.00,87.14 532.00,86.62 C532.00,86.10 532.27,85.94 532.61,86.27 C533.53,87.19 535.88,84.64 535.16,83.50 C534.82,82.95 534.47,79.20 534.39,75.17 C534.31,71.15 533.74,67.34 533.12,66.72 C532.51,66.11 532.00,65.93 532.00,66.34 C532.00,66.74 531.16,66.62 530.13,66.07 C527.28,64.55 526.98,65.75 529.06,70.33 C529.80,71.96 530.32,73.56 530.62,75.12 C529.58,70.83 526.63,65.71 523.68,63.56 L 521.95 62.30 C522.36,62.32 522.61,62.34 522.68,62.36 C525.47,63.12 525.81,63.00 525.50,61.36 C525.31,60.34 525.12,59.14 525.08,58.69 C525.03,58.25 524.55,58.16 524.00,58.50 C523.45,58.84 523.00,58.73 523.00,58.25 C523.00,57.30 517.74,57.42 516.14,58.41 C515.59,58.75 514.91,58.66 514.63,58.21 C514.35,57.75 415.65,57.49 295.31,57.61 C274.06,57.64 254.82,57.66 237.37,57.67 C69.46,57.85 69.09,57.85 68.79,57.70 C68.76,57.68 68.73,57.66 68.50,57.64 C65.79,57.41 64.87,60.07 66.87,62.40 C68.43,64.21 68.40,64.24 66.13,63.05 C64.83,62.36 64.05,62.26 64.40,62.83 C64.75,63.40 64.58,64.14 64.02,64.49 C63.46,64.84 63.00,65.99 63.00,67.06 C63.00,68.13 62.60,69.00 62.11,69.00 C61.01,69.00 59.69,73.54 59.71,77.25 C59.72,78.76 59.39,80.00 58.97,80.00 C58.56,80.00 57.91,81.20 57.55,82.68 C56.85,85.45 58.73,87.50 61.99,87.50 C62.80,87.50 63.62,88.40 63.80,89.50 C63.97,90.60 64.39,92.18 64.72,93.00 C65.05,93.82 65.27,94.75 65.22,95.06 ZM 65.23 350.40 C66.59,351.86 515.34,351.44 515.83,349.98 C516.02,349.44 516.83,349.00 517.64,349.00 C518.51,349.00 518.82,349.48 518.39,350.17 C517.91,350.96 518.22,351.13 519.34,350.70 C520.25,350.35 521.00,350.44 521.00,350.89 C521.00,352.44 525.89,350.80 526.23,349.14 C526.80,346.38 524.26,345.17 520.77,346.46 C524.24,344.76 527.30,341.37 529.14,337.51 C529.11,337.56 529.09,337.62 529.06,337.67 C528.02,339.96 527.43,342.10 527.75,342.42 C528.73,343.40 530.53,343.07 532.56,341.53 C533.63,340.72 534.18,340.05 533.80,340.03 C533.41,340.01 533.68,338.61 534.39,336.92 C535.75,333.69 535.43,329.00 533.85,329.00 C533.31,329.00 533.29,328.27 533.79,327.25 C534.70,325.41 534.85,320.92 534.00,321.18 C533.72,321.27 532.55,320.83 531.38,320.20 C528.44,318.63 527.93,319.59 529.59,323.55 C530.14,324.87 530.51,326.18 530.72,327.51 C530.04,323.72 527.93,319.67 525.29,317.10 C527.38,318.47 527.57,318.24 527.83,316.71 C528.29,314.08 526.56,312.58 522.98,312.49 C520.62,312.43 519.75,312.62 520.50,313.50 L 298.50 313.24 C135.39,313.05 75.77,313.28 73.76,314.11 C71.37,315.09 68.47,317.80 66.33,320.70 C66.84,319.96 67.41,319.25 68.05,318.56 L 71.97 314.31 L 69.36 313.12 C67.18,312.13 66.43,312.21 64.91,313.58 C63.90,314.49 63.11,315.52 63.16,315.87 C63.37,317.60 62.86,318.99 61.52,320.34 C60.71,321.15 59.84,323.42 59.60,325.37 C59.36,327.33 58.87,329.40 58.52,329.97 C58.17,330.54 58.39,331.00 59.00,331.00 C59.61,331.00 59.86,331.42 59.55,331.93 C58.96,332.87 60.89,338.08 62.17,339.02 C62.56,339.31 63.18,341.74 63.54,344.42 C63.91,347.11 64.67,349.80 65.23,350.40 ZM 65.14 222.67 C66.17,223.92 67.66,224.11 72.37,223.62 C75.63,223.28 80.81,222.93 83.90,222.85 L 89.50 222.71 L 82.34 222.05 C81.07,221.93 79.87,221.77 78.75,221.56 L 102.92 222.00 C118.09,222.27 217.52,222.40 323.87,222.29 C508.23,222.08 517.15,222.01 520.73,220.27 C519.59,220.92 518.48,221.38 517.46,221.57 C515.19,222.00 514.27,222.55 515.03,223.02 C516.45,223.89 522.49,223.67 525.66,222.63 C527.21,222.12 527.74,221.24 527.55,219.47 C527.40,218.12 527.89,216.51 528.64,215.89 C529.39,215.26 530.00,215.12 530.00,215.57 C530.00,216.02 530.66,215.51 531.47,214.44 C533.09,212.30 533.54,206.00 532.08,206.00 C531.57,206.00 530.62,207.63 529.96,209.62 C529.39,211.36 528.26,213.21 526.85,214.94 C528.97,212.09 530.42,208.64 530.72,205.32 C530.93,203.01 530.62,200.68 529.89,198.50 C530.95,200.52 531.93,201.98 532.25,201.99 C532.66,201.99 533.00,200.23 533.00,198.07 C533.00,195.01 532.55,193.99 531.00,193.50 C529.90,193.15 529.00,192.42 529.00,191.87 C529.00,191.33 528.60,191.13 528.10,191.44 C526.85,192.21 526.01,189.60 527.00,188.00 C528.08,186.25 527.15,184.00 525.33,184.00 C524.46,184.00 524.16,184.50 524.59,185.25 C525.15,186.25 525.02,186.25 523.95,185.25 C523.21,184.56 522.21,184.00 521.74,184.00 C521.27,184.00 521.22,184.56 521.63,185.25 C522.22,186.23 522.04,186.22 520.82,185.23 C519.34,184.03 515.95,184.48 516.05,185.86 C516.06,186.03 516.65,186.47 517.59,187.03 L 297.20 187.02 C280.99,187.02 265.94,187.01 251.98,187.01 C107.73,186.98 79.17,186.97 71.77,189.32 C72.95,188.45 74.10,187.79 75.06,187.48 C77.22,186.79 77.17,186.69 73.95,185.34 C70.35,183.82 65.94,183.87 64.82,185.44 C64.45,185.96 64.60,187.26 65.17,188.32 C65.91,189.69 65.89,190.05 65.10,189.56 C64.49,189.19 64.00,189.53 64.00,190.33 C64.00,192.00 61.31,193.31 59.80,192.38 C59.24,192.03 58.43,192.30 58.01,192.98 C57.08,194.49 57.88,198.00 59.16,198.00 C59.67,198.00 60.01,198.56 59.93,199.25 C59.84,199.94 59.82,201.05 59.88,201.72 C60.11,204.02 62.90,201.82 64.01,198.48 C64.28,197.65 64.81,196.69 65.52,195.68 C62.99,199.90 62.53,204.85 63.98,209.34 C61.73,205.13 60.00,204.96 59.98,209.25 C59.97,211.72 59.74,212.14 59.00,211.00 C58.17,209.72 58.03,209.75 58.02,211.25 C58.01,212.21 57.47,213.00 56.83,213.00 C54.80,213.00 56.64,214.07 59.60,214.60 C63.11,215.24 63.20,215.33 63.55,218.51 C63.71,219.93 64.42,221.80 65.14,222.67 ZM 508.98 347.36 C488.07,347.87 432.85,347.99 298.36,347.98 C417.63,347.99 484.58,347.80 508.98,347.36 ZM 525.23 344.81 C524.99,345.54 525.44,345.77 526.42,345.39 C527.29,345.06 528.00,344.35 528.00,343.81 C528.00,342.50 525.73,343.32 525.23,344.81 ZM 63.14 330.54 C63.39,336.76 66.83,342.49 72.53,345.72 C66.39,342.24 63.14,336.47 63.14,330.54 ZM 70.40 92.07 C67.52,90.06 64.92,86.05 63.72,82.16 C64.86,85.70 67.32,89.41 70.40,92.07 ZM 68.05 216.12 C69.00,217.10 70.08,218.01 71.30,218.82 L 71.88 219.20 C70.42,218.37 69.16,217.35 68.05,216.12 ZM 525.18 191.27 C525.97,191.90 526.60,192.59 527.20,193.46 C526.59,192.67 525.92,191.94 525.18,191.27 ZM 63.02 78.08 C63.02,78.03 63.02,77.98 63.02,77.93 C63.04,75.29 63.95,72.27 65.39,69.60 C63.95,72.29 63.04,75.35 63.02,78.08 Z" fill="rgb(254,254,254)"/>
<path d="M 65.23 350.40 C64.67,349.80 63.91,347.11 63.54,344.42 C63.18,341.74 62.56,339.31 62.17,339.02 C60.89,338.08 58.96,332.87 59.55,331.93 C59.86,331.42 59.61,331.00 59.00,331.00 C58.39,331.00 58.17,330.54 58.52,329.97 C58.87,329.40 59.36,327.33 59.60,325.37 C59.84,323.42 60.71,321.15 61.52,320.34 C62.86,318.99 63.37,317.60 63.16,315.87 C63.11,315.52 63.90,314.49 64.91,313.58 C66.43,312.21 67.18,312.13 69.36,313.12 L 71.97 314.31 L 68.05 318.56 C60.01,327.28 62.08,339.80 72.53,345.72 L 76.50 347.97 L 296.78 347.98 C481.20,348.00 517.60,347.78 520.35,346.63 C524.05,345.08 526.83,346.27 526.23,349.14 C525.89,350.80 521.00,352.44 521.00,350.89 C521.00,350.44 520.25,350.35 519.34,350.70 C518.22,351.13 517.91,350.96 518.39,350.17 C518.82,349.48 518.51,349.00 517.64,349.00 C516.83,349.00 516.02,349.44 515.83,349.98 C515.34,351.44 66.59,351.86 65.23,350.40 ZM 525.23 344.81 C525.73,343.32 528.00,342.50 528.00,343.81 C528.00,344.35 527.29,345.06 526.42,345.39 C525.44,345.77 524.99,345.54 525.23,344.81 ZM 527.75 342.42 C527.43,342.10 528.02,339.96 529.06,337.67 C531.33,332.67 531.50,328.13 529.59,323.55 C527.93,319.59 528.44,318.63 531.38,320.20 C532.55,320.83 533.72,321.27 534.00,321.18 C534.85,320.92 534.70,325.41 533.79,327.25 C533.29,328.27 533.31,329.00 533.85,329.00 C535.43,329.00 535.75,333.69 534.39,336.92 C533.68,338.61 533.41,340.01 533.80,340.03 C534.18,340.05 533.63,340.72 532.56,341.53 C530.53,343.07 528.73,343.40 527.75,342.42 ZM 523.79 316.08 C519.26,312.94 519.14,312.40 522.98,312.49 C526.56,312.58 528.29,314.08 527.83,316.71 C527.52,318.55 527.30,318.51 523.79,316.08 ZM 65.14 222.67 C64.42,221.80 63.71,219.93 63.55,218.51 C63.20,215.33 63.11,215.24 59.60,214.60 C56.64,214.07 54.80,213.00 56.83,213.00 C57.47,213.00 58.01,212.21 58.02,211.25 C58.03,209.75 58.17,209.72 59.00,211.00 C59.74,212.14 59.97,211.72 59.98,209.25 C60.01,204.45 62.16,205.24 64.82,211.03 C68.04,218.06 73.01,221.18 82.34,222.05 L 89.50 222.71 L 83.90 222.85 C80.81,222.93 75.63,223.28 72.37,223.62 C67.66,224.11 66.17,223.92 65.14,222.67 ZM 515.03 223.02 C514.27,222.55 515.19,222.00 517.46,221.57 C521.96,220.73 528.29,214.68 529.96,209.62 C530.62,207.63 531.57,206.00 532.08,206.00 C533.54,206.00 533.09,212.30 531.47,214.44 C530.66,215.51 530.00,216.02 530.00,215.57 C530.00,215.12 529.39,215.26 528.64,215.89 C527.89,216.51 527.40,218.12 527.55,219.47 C527.74,221.24 527.21,222.12 525.66,222.63 C522.49,223.67 516.45,223.89 515.03,223.02 ZM 59.88 201.72 C59.82,201.05 59.84,199.94 59.93,199.25 C60.01,198.56 59.67,198.00 59.16,198.00 C57.88,198.00 57.08,194.49 58.01,192.98 C58.43,192.30 59.24,192.03 59.80,192.38 C61.31,193.31 64.00,192.00 64.00,190.33 C64.00,189.53 64.49,189.19 65.10,189.56 C65.89,190.05 65.91,189.69 65.17,188.32 C64.60,187.26 64.45,185.96 64.82,185.44 C65.94,183.87 70.35,183.82 73.95,185.34 C77.17,186.69 77.22,186.79 75.06,187.48 C71.44,188.63 65.21,194.82 64.01,198.48 C62.90,201.82 60.11,204.02 59.88,201.72 ZM 529.00 196.74 C526.89,192.32 525.68,191.11 521.30,189.00 C518.43,187.62 516.07,186.21 516.05,185.86 C515.95,184.48 519.34,184.03 520.82,185.23 C522.04,186.22 522.22,186.23 521.63,185.25 C521.22,184.56 521.27,184.00 521.74,184.00 C522.21,184.00 523.21,184.56 523.95,185.25 C525.02,186.25 525.15,186.25 524.59,185.25 C524.16,184.50 524.46,184.00 525.33,184.00 C527.15,184.00 528.08,186.25 527.00,188.00 C526.01,189.60 526.85,192.21 528.10,191.44 C528.60,191.13 529.00,191.33 529.00,191.87 C529.00,192.42 529.90,193.15 531.00,193.50 C532.55,193.99 533.00,195.01 533.00,198.07 C533.00,200.23 532.66,201.99 532.25,201.99 C531.84,201.98 530.38,199.61 529.00,196.74 ZM 65.22 95.06 C65.27,94.75 65.05,93.82 64.72,93.00 C64.39,92.18 63.97,90.60 63.80,89.50 C63.62,88.40 62.80,87.50 61.99,87.50 C58.73,87.50 56.85,85.45 57.55,82.68 C57.91,81.20 58.56,80.00 58.97,80.00 C59.39,80.00 59.72,78.76 59.71,77.25 C59.69,73.54 61.01,69.00 62.11,69.00 C62.60,69.00 63.00,68.13 63.00,67.06 C63.00,65.99 63.46,64.84 64.02,64.49 C64.58,64.14 64.75,63.40 64.40,62.83 C64.05,62.26 64.83,62.36 66.13,63.05 C68.40,64.24 68.43,64.21 66.87,62.40 C64.87,60.07 65.79,57.41 68.50,57.64 C71.12,57.87 47.84,57.87 295.31,57.61 C415.65,57.49 514.35,57.75 514.63,58.21 C514.91,58.66 515.59,58.75 516.14,58.41 C517.74,57.42 523.00,57.30 523.00,58.25 C523.00,58.73 523.45,58.84 524.00,58.50 C524.55,58.16 525.03,58.25 525.08,58.69 C525.12,59.14 525.31,60.34 525.50,61.36 C525.81,63.00 525.47,63.12 522.68,62.36 C520.93,61.89 419.15,61.50 296.50,61.50 L 73.50 61.50 L 70.13 63.90 C66.25,66.67 63.05,72.97 63.02,77.93 C62.99,82.76 66.47,89.38 70.46,92.12 C72.33,93.39 73.62,94.80 73.34,95.25 C72.79,96.15 65.07,95.96 65.22,95.06 ZM 520.01 95.28 C520.01,94.85 521.43,93.69 523.17,92.70 C526.36,90.88 528.42,91.74 527.38,94.46 C526.89,95.73 520.00,96.50 520.01,95.28 ZM 529.64 84.32 C531.50,79.86 531.31,75.28 529.06,70.33 C526.98,65.75 527.28,64.55 530.13,66.07 C531.16,66.62 532.00,66.74 532.00,66.34 C532.00,65.93 532.51,66.11 533.12,66.72 C533.74,67.34 534.31,71.15 534.39,75.17 C534.47,79.20 534.82,82.95 535.16,83.50 C535.88,84.64 533.53,87.19 532.61,86.27 C532.27,85.94 532.00,86.10 532.00,86.62 C532.00,87.14 531.16,87.57 530.14,87.57 C528.43,87.57 528.39,87.31 529.64,84.32 Z" fill="rgb(251,251,251)"/>
</g>
</svg>