<?xml version="1.0" encoding="UTF-8"?>
<svg version="1.1" xmlns="http://www.w3.org/2000/svg" width="512" height="512">
<path d="M0 0 C1.00352278 -0.00384115 2.00704557 -0.00768229 3.04097813 -0.01163983 C4.68395327 -0.01034011 4.68395327 -0.01034011 6.36011982 -0.00901413 C7.52931581 -0.01198525 8.69851181 -0.01495637 9.90313798 -0.01801753 C13.14479529 -0.02518905 16.38642027 -0.02787617 19.6280843 -0.028615 C23.12584056 -0.03046848 26.6235854 -0.03801731 30.12133503 -0.04475021 C37.76815914 -0.05832232 45.41497801 -0.06435655 53.06181216 -0.06876087 C57.83845776 -0.07152528 62.61510134 -0.075763 67.39174557 -0.08026505 C80.62233033 -0.0924564 93.85291347 -0.10275588 107.08350372 -0.10614014 C107.93001693 -0.1063597 108.77653013 -0.10657927 109.64869525 -0.10680549 C110.49721023 -0.10702377 111.34572521 -0.10724204 112.21995276 -0.10746694 C113.93930797 -0.1079104 115.65866317 -0.10835696 117.37801838 -0.10880661 C118.65730212 -0.10913875 118.65730212 -0.10913875 119.96242998 -0.10947761 C133.77758114 -0.1134245 147.59267952 -0.13087577 161.40781029 -0.15416613 C175.5987147 -0.17789646 189.78959264 -0.19034276 203.98051721 -0.19150805 C211.94530889 -0.19242389 219.91003179 -0.19815301 227.8748045 -0.21632767 C234.65782524 -0.23175139 241.44075595 -0.23683576 248.22379091 -0.22858956 C251.68226244 -0.22469103 255.14055281 -0.22557339 258.59900188 -0.23964691 C262.35481638 -0.25235367 266.1101678 -0.24649583 269.86597919 -0.23606491 C270.95014234 -0.24412132 272.03430549 -0.25217772 273.15132207 -0.26047826 C284.20689779 -0.18881066 292.96407215 2.22592007 300.93050861 10.13142776 C308.73344089 19.73889256 309.87480032 29.14250896 308.93050861 41.13142776 C306.95217199 49.50678101 300.96531769 56.36535758 293.86800861 61.00642776 C286.83498292 65.25895493 280.23708115 65.42123962 272.22878742 65.3988533 C270.44921048 65.40564997 270.44921048 65.40564997 268.63368249 65.41258395 C265.34864459 65.42304344 262.06374458 65.42455561 258.77869534 65.4221952 C255.23254823 65.42178657 251.68643362 65.43283058 248.1403017 65.44231033 C241.19545265 65.45891183 234.25063755 65.46441951 227.30577031 65.46553509 C221.65906409 65.46648603 216.01236906 65.47059865 210.36566639 65.47693634 C194.34854547 65.49454698 178.33145133 65.50377557 162.31432065 65.50227539 C161.45112459 65.50219548 160.58792854 65.50211557 159.69857502 65.50203323 C158.40219584 65.50191059 158.40219584 65.50191059 157.07962719 65.50178547 C143.07698847 65.50097278 129.07445738 65.52010665 115.07184979 65.54830997 C100.68654603 65.57705493 86.30129471 65.59084935 71.9159615 65.58912241 C63.84273849 65.58845904 55.76962827 65.59392838 47.69643116 65.61547852 C40.82191536 65.63371162 33.9475635 65.63802029 27.07303396 65.62445967 C23.56792741 65.61794047 20.06313517 65.61777431 16.55805874 65.63516617 C12.75181398 65.65060906 8.94639152 65.64131516 5.14016438 65.62590408 C4.04111955 65.63619121 2.94207473 65.64647834 1.80972552 65.65707719 C-8.40142626 65.5658839 -17.73445724 62.49794274 -25.06949139 55.13142776 C-31.23287468 46.968369 -34.14029458 38.38054408 -33.06949139 28.13142776 C-31.16681781 17.85059488 -25.61325905 10.08786709 -17.06949139 4.13142776 C-11.61735341 1.14267547 -6.17081001 0.00889732 0 0 Z " fill="#455964" transform="translate(75.06949138641357,233.86857223510742)"/>
<path d="M0 0 C1.00352278 -0.00384115 2.00704557 -0.00768229 3.04097813 -0.01163983 C4.68395327 -0.01034011 4.68395327 -0.01034011 6.36011982 -0.00901413 C7.52931581 -0.01198525 8.69851181 -0.01495637 9.90313798 -0.01801753 C13.14479529 -0.02518905 16.38642027 -0.02787617 19.6280843 -0.028615 C23.12584056 -0.03046848 26.6235854 -0.03801731 30.12133503 -0.04475021 C37.76815914 -0.05832232 45.41497801 -0.06435655 53.06181216 -0.06876087 C57.83845776 -0.07152528 62.61510134 -0.075763 67.39174557 -0.08026505 C80.62233033 -0.0924564 93.85291347 -0.10275588 107.08350372 -0.10614014 C107.93001693 -0.1063597 108.77653013 -0.10657927 109.64869525 -0.10680549 C110.49721023 -0.10702377 111.34572521 -0.10724204 112.21995276 -0.10746694 C113.93930797 -0.1079104 115.65866317 -0.10835696 117.37801838 -0.10880661 C118.65730212 -0.10913875 118.65730212 -0.10913875 119.96242998 -0.10947761 C133.77758114 -0.1134245 147.59267952 -0.13087577 161.40781029 -0.15416613 C175.5987147 -0.17789646 189.78959264 -0.19034276 203.98051721 -0.19150805 C211.94530889 -0.19242389 219.91003179 -0.19815301 227.8748045 -0.21632767 C234.65782524 -0.23175139 241.44075595 -0.23683576 248.22379091 -0.22858956 C251.68226244 -0.22469103 255.14055281 -0.22557339 258.59900188 -0.23964691 C262.35481638 -0.25235367 266.1101678 -0.24649583 269.86597919 -0.23606491 C270.95014234 -0.24412132 272.03430549 -0.25217772 273.15132207 -0.26047826 C284.20689779 -0.18881066 292.96407215 2.22592007 300.93050861 10.13142776 C308.73344089 19.73889256 309.87480032 29.14250896 308.93050861 41.13142776 C306.95217199 49.50678101 300.96531769 56.36535758 293.86800861 61.00642776 C286.83498292 65.25895493 280.23708115 65.42123962 272.22878742 65.3988533 C270.44921048 65.40564997 270.44921048 65.40564997 268.63368249 65.41258395 C265.34864459 65.42304344 262.06374458 65.42455561 258.77869534 65.4221952 C255.23254823 65.42178657 251.68643362 65.43283058 248.1403017 65.44231033 C241.19545265 65.45891183 234.25063755 65.46441951 227.30577031 65.46553509 C221.65906409 65.46648603 216.01236906 65.47059865 210.36566639 65.47693634 C194.34854547 65.49454698 178.33145133 65.50377557 162.31432065 65.50227539 C161.45112459 65.50219548 160.58792854 65.50211557 159.69857502 65.50203323 C158.40219584 65.50191059 158.40219584 65.50191059 157.07962719 65.50178547 C143.07698847 65.50097278 129.07445738 65.52010665 115.07184979 65.54830997 C100.68654603 65.57705493 86.30129471 65.59084935 71.9159615 65.58912241 C63.84273849 65.58845904 55.76962827 65.59392838 47.69643116 65.61547852 C40.82191536 65.63371162 33.9475635 65.63802029 27.07303396 65.62445967 C23.56792741 65.61794047 20.06313517 65.61777431 16.55805874 65.63516617 C12.75181398 65.65060906 8.94639152 65.64131516 5.14016438 65.62590408 C4.04111955 65.63619121 2.94207473 65.64647834 1.80972552 65.65707719 C-8.40142626 65.5658839 -17.73445724 62.49794274 -25.06949139 55.13142776 C-31.23287468 46.968369 -34.14029458 38.38054408 -33.06949139 28.13142776 C-31.16681781 17.85059488 -25.61325905 10.08786709 -17.06949139 4.13142776 C-11.61735341 1.14267547 -6.17081001 0.00889732 0 0 Z " fill="#455964" transform="translate(75.06949138641357,105.86857223510742)"/>
<path d="M0 0 C0.64650129 -0.00297112 1.29300258 -0.00594224 1.95909482 -0.0090034 C4.11754397 -0.01764963 6.27593739 -0.01919519 8.43440247 -0.02069092 C9.98539853 -0.02532203 11.53639347 -0.03034709 13.08738708 -0.03573608 C17.29630548 -0.04883505 21.50520793 -0.05530032 25.71414351 -0.05974674 C28.3466658 -0.06268192 30.97918377 -0.06678759 33.61170387 -0.07125092 C41.85674652 -0.08492015 50.10177926 -0.09458924 58.34683245 -0.09845281 C67.84852014 -0.10293027 77.35006375 -0.12046608 86.85170764 -0.1494534 C94.20647161 -0.17110824 101.56119516 -0.18115914 108.91599065 -0.18249393 C113.30376279 -0.18353936 117.69139937 -0.18939119 122.0791378 -0.20731354 C126.21027167 -0.2238598 130.34116906 -0.22591813 134.47232437 -0.21717453 C135.98232598 -0.21640761 137.49234066 -0.22070098 139.0023098 -0.23063278 C150.5761142 -0.30224949 160.25502496 0.46827116 169.38679504 8.11309814 C175.81917643 14.49628349 179.60478901 21.74190236 179.81037903 30.90020752 C179.78110231 41.60275709 177.71916629 48.43588076 170.35554504 56.35137939 C163.75754451 62.48096204 156.61614486 65.38229793 147.5874176 65.40786743 C146.92372768 65.41239854 146.26003775 65.41692966 145.57623601 65.42159808 C143.36555609 65.43419787 141.15512394 65.4326246 138.94441223 65.43096924 C137.35385829 65.43695734 135.76330725 65.44376353 134.17276001 65.45132446 C129.86058232 65.46896489 125.54848405 65.47367907 121.23627377 65.47495604 C118.53891364 65.47637951 115.84157358 65.48065288 113.14421844 65.48595047 C103.72457604 65.50444558 94.30499016 65.51262189 84.8853302 65.51104736 C76.12048653 65.5098467 67.3558894 65.5309355 58.59110808 65.56253469 C51.05372648 65.5887353 43.51642519 65.59941305 35.97899842 65.59813654 C31.48278013 65.59762794 26.98678094 65.60325435 22.49060822 65.62449265 C18.25844032 65.64393849 14.02669906 65.64395647 9.79451561 65.62945938 C8.24742442 65.62737789 6.70030608 65.63203259 5.15326118 65.6441803 C-6.26432053 65.72797594 -15.62533003 64.28301851 -24.74992371 56.96856689 C-31.37984441 50.3101916 -34.47712804 42.02953245 -34.88273621 32.76544189 C-34.59159178 22.81515311 -30.76358971 15.40542786 -23.87101746 8.41778564 C-16.85911751 2.00465468 -9.40727422 0.02422972 0 0 Z " fill="#455964" transform="translate(76.57023620605469,361.85955810546875)"/>
<path d="M0 0 C7.25707503 5.93760684 12.60879954 12.66391614 13.75 22.25 C14.61809472 32.85769405 11.64718833 42.10445179 4.75 50.25 C-2.01759286 56.78915091 -9.31462368 59.3459359 -18.625 59.6875 C-28.54058203 59.39858444 -36.11205634 56.41334941 -43.3046875 49.54296875 C-50.70395508 40.8213421 -52.09510652 31.35541388 -51.25 20.25 C-49.1031949 11.25795348 -44.17478839 3.82762637 -36.375 -1.125 C-24.72181966 -7.53512013 -11.10090473 -7.90807308 0 0 Z " fill="#FEC106" transform="translate(456.25,111.75)"/>
</svg>
